<svg xmlns="http://www.w3.org/2000/svg" viewBox="0 0 100 100" width="100" height="100"><defs><linearGradient id="fg" x1=".12" y1="0" x2=".88" y2="1"><stop offset="0" stop-color="#F0DFAF"/><stop offset=".38" stop-color="#C9A961"/><stop offset=".58" stop-color="#F0DFAF"/><stop offset="1" stop-color="#987936"/></linearGradient><radialGradient id="fj" cx="34%" cy="28%" r="82%"><stop offset="0" stop-color="#87DEBB"/><stop offset=".42" stop-color="#37A37E"/><stop offset="1" stop-color="#175540"/></radialGradient></defs><circle cx="50.00" cy="8.00" r="8.4" fill="url(#fg)"/><circle cx="50.00" cy="8.00" r="8.4" fill="none" stroke="#987936" stroke-width="1.1" opacity=".85"/><circle cx="50.00" cy="8.00" r="3.4" fill="#4E4272"/><circle cx="79.70" cy="20.30" r="8.4" fill="url(#fg)"/><circle cx="79.70" cy="20.30" r="8.4" fill="none" stroke="#987936" stroke-width="1.1" opacity=".85"/><circle cx="79.70" cy="20.30" r="3.4" fill="#4E4272"/><circle cx="92.00" cy="50.00" r="8.4" fill="url(#fg)"/><circle cx="92.00" cy="50.00" r="8.4" fill="none" stroke="#987936" stroke-width="1.1" opacity=".85"/><circle cx="92.00" cy="50.00" r="3.4" fill="#4E4272"/><circle cx="79.70" cy="79.70" r="8.4" fill="url(#fg)"/><circle cx="79.70" cy="79.70" r="8.4" fill="none" stroke="#987936" stroke-width="1.1" opacity=".85"/><circle cx="79.70" cy="79.70" r="3.4" fill="#4E4272"/><circle cx="50.00" cy="92.00" r="8.4" fill="url(#fg)"/><circle cx="50.00" cy="92.00" r="8.4" fill="none" stroke="#987936" stroke-width="1.1" opacity=".85"/><circle cx="50.00" cy="92.00" r="3.4" fill="#4E4272"/><circle cx="20.30" cy="79.70" r="8.4" fill="url(#fg)"/><circle cx="20.30" cy="79.70" r="8.4" fill="none" stroke="#987936" stroke-width="1.1" opacity=".85"/><circle cx="20.30" cy="79.70" r="3.4" fill="#4E4272"/><circle cx="8.00" cy="50.00" r="8.4" fill="url(#fg)"/><circle cx="8.00" cy="50.00" r="8.4" fill="none" stroke="#987936" stroke-width="1.1" opacity=".85"/><circle cx="8.00" cy="50.00" r="3.4" fill="#4E4272"/><circle cx="20.30" cy="20.30" r="8.4" fill="url(#fg)"/><circle cx="20.30" cy="20.30" r="8.4" fill="none" stroke="#987936" stroke-width="1.1" opacity=".85"/><circle cx="20.30" cy="20.30" r="3.4" fill="#4E4272"/><circle cx="50" cy="50" r="40" fill="url(#fg)"/><circle cx="50" cy="50" r="40" fill="none" stroke="#987936" stroke-width="2"/><circle cx="50" cy="50" r="29" fill="#987936"/><circle cx="50" cy="50" r="27" fill="url(#fj)"/><ellipse cx="41" cy="40" rx="8.5" ry="5.5" fill="#DDFBF0" opacity=".45" transform="rotate(-38 41 40)"/></svg>